<svg width="24" height="24" viewBox="0 0 24 24" fill="none" xmlns="http://www.w3.org/2000/svg">
  <path d="M17.05 12.536C17.017 9.751 19.404 8.488 19.501 8.435C18.177 6.497 16.166 6.244 15.455 6.222C13.715 6.044 12.03 7.255 11.147 7.255C10.245 7.255 8.86 6.244 7.395 6.277C5.494 6.31 3.736 7.354 2.788 9.003C0.834 12.347 2.32 17.288 4.194 19.996C5.126 21.319 6.212 22.797 7.659 22.731C9.072 22.658 9.603 21.825 11.301 21.825C12.982 21.825 13.48 22.731 14.959 22.687C16.483 22.658 17.413 21.352 18.312 20.018C19.38 18.485 19.82 16.986 19.842 16.898C19.798 16.887 17.088 15.873 17.05 12.536Z" fill="white"/>
  <path d="M14.918 4.044C15.673 3.12 16.177 1.863 16.045 0.6C14.962 0.644 13.629 1.324 12.841 2.226C12.139 3.032 11.53 4.333 11.684 5.552C12.885 5.64 14.141 4.957 14.918 4.044Z" fill="white"/>
</svg>

